<?xml version="1.0" encoding="iso-8859-1"?>
<!-- Generator: Adobe Illustrator 19.0.0, SVG Export Plug-In . SVG Version: 6.00 Build 0)  -->
<svg version="1.1" id="Capa_1" xmlns="http://www.w3.org/2000/svg" xmlns:xlink="http://www.w3.org/1999/xlink" x="0px" y="0px"
	 viewBox="0 0 512 512" style="enable-background:new 0 0 512 512;" xml:space="preserve">
<g>
	<g>
		<path d="M504.5,416.84h-8.532V360.21c0-4.142-3.358-7.5-7.5-7.5h-88.693v-72.661c0-4.142-3.358-7.5-7.5-7.5h-40.597v-24.564
			c0-4.142-3.358-7.5-7.5-7.5h-72.661v-72.661c0-4.142-3.358-7.5-7.5-7.5h-9.245c-3.046-15.813-15.539-28.297-31.352-31.344V87.662
			c0-4.142-3.358-7.5-7.5-7.5c-4.142,0-7.5,3.358-7.5,7.5v41.317c-15.812,3.047-28.305,15.531-31.352,31.344h-9.245
			c-4.142,0-7.5,3.358-7.5,7.5v56.629h-56.629c-4.142,0-7.5,3.358-7.5,7.5v56.629H23.532c-4.142,0-7.5,3.358-7.5,7.5v120.758H7.5
			c-4.142,0-7.5,3.358-7.5,7.5c0,4.142,3.358,7.5,7.5,7.5h497c4.142,0,7.5-3.358,7.5-7.5C512,420.197,508.642,416.84,504.5,416.84z
			 M111.193,239.452h81.194v17.064h-81.194V239.452z M144.29,416.84h-17.065v-8.532c0-4.142-3.358-7.5-7.5-7.5
			c-4.142,0-7.5,3.358-7.5,7.5v8.532H95.161v-8.532c0-4.142-3.358-7.5-7.5-7.5c-4.142,0-7.5,3.358-7.5,7.5v8.532H63.097v-8.532
			c0-4.142-3.358-7.5-7.5-7.5c-4.142,0-7.5,3.358-7.5,7.5v8.532H31.032V303.582H144.29V416.84z M111.193,288.58v-17.064h81.194
			v17.064H151.79H111.193z M176.355,416.84h-17.064v-17.065h17.064V416.84z M176.355,384.774h-17.064V367.71h17.064V384.774z
			 M176.355,352.71h-17.064v-17.064h17.064V352.71z M159.291,320.645v-17.064h33.096v17.064h-8.532H159.291z M336.676,272.548
			h-24.564c-4.142,0-7.5,3.358-7.5,7.5c0,4.142,3.358,7.5,7.5,7.5h24.564v17.064h-24.564c-4.142,0-7.5,3.358-7.5,7.5
			c0,4.142,3.358,7.5,7.5,7.5h24.564v17.064h-24.564c-4.142,0-7.5,3.358-7.5,7.5c0,4.142,3.358,7.5,7.5,7.5h24.564v17.064h-24.564
			c-4.142,0-7.5,3.358-7.5,7.5c0,4.142,3.358,7.5,7.5,7.5h24.564v33.097h-49.129v-8.532c0-4.142-3.358-7.5-7.5-7.5
			c-4.142,0-7.5,3.358-7.5,7.5v8.532h-17.064V400.29c0-4.142-3.358-7.5-7.5-7.5c-4.142,0-7.5,3.358-7.5,7.5v16.549h-17.064V400.29
			c0-4.142-3.358-7.5-7.5-7.5c-4.142,0-7.5,3.358-7.5,7.5v16.549h-17.064v-81.194h81.193v40.597c0,4.142,3.358,7.5,7.5,7.5
			c4.142,0,7.5-3.358,7.5-7.5v-48.097c0-4.142-3.358-7.5-7.5-7.5h-8.532v-24.563c0-4.142-3.358-7.5-7.5-7.5
			c-4.142,0-7.5,3.358-7.5,7.5v24.563h-49.129v-88.693c0-4.142-3.358-7.5-7.5-7.5h-24.564v-49.129h8.532c4.142,0,7.5-3.358,7.5-7.5
			c0-13.545,11.02-24.565,24.564-24.565s24.564,11.02,24.564,24.565c0,4.142,3.358,7.5,7.5,7.5h8.532v88.695
			c0,4.142,3.358,7.5,7.5,7.5c4.142,0,7.5-3.358,7.5-7.5v-8.534h65.161V272.548z M368.741,360.21v56.629h-17.064v-129.29h33.097
			v65.161h-8.533C372.099,352.71,368.741,356.068,368.741,360.21z M480.968,416.84h-25.081v-24.564c0-4.142-3.358-7.5-7.5-7.5
			c-4.142,0-7.5,3.358-7.5,7.5v24.564h-17.063v-24.564c0-4.142-3.358-7.5-7.5-7.5c-4.142,0-7.5,3.358-7.5,7.5v24.564h-25.082V367.71
			h97.226V416.84z"/>
	</g>
</g>
<g>
	<g>
		<path d="M232.032,192.387h-0.08c-4.142,0-7.46,3.358-7.46,7.5c0,4.142,3.398,7.5,7.54,7.5c4.142,0,7.5-3.358,7.5-7.5
			C239.532,195.746,236.174,192.387,232.032,192.387z"/>
	</g>
</g>
<g>
	<g>
		<path d="M232.032,288.582h-0.08c-4.142,0-7.46,3.358-7.46,7.5c0,4.142,3.398,7.5,7.54,7.5c4.142,0,7.5-3.358,7.5-7.5
			C239.532,291.939,236.174,288.582,232.032,288.582z"/>
	</g>
</g>
<g>
	<g>
		<path d="M232.032,256.517h-0.08c-4.142,0-7.46,3.358-7.46,7.5c0,4.142,3.398,7.5,7.54,7.5c4.142,0,7.5-3.358,7.5-7.5
			C239.532,259.874,236.174,256.517,232.032,256.517z"/>
	</g>
</g>
<g>
	<g>
		<path d="M232.032,224.452h-0.08c-4.142,0-7.46,3.358-7.46,7.5c0,4.142,3.398,7.5,7.54,7.5c4.142,0,7.5-3.358,7.5-7.5
			C239.532,227.811,236.174,224.452,232.032,224.452z"/>
	</g>
</g>
<g>
	<g>
		<path d="M199.967,192.387h-0.08c-4.142,0-7.46,3.358-7.46,7.5c0,4.142,3.398,7.5,7.54,7.5c4.142,0,7.5-3.358,7.5-7.5
			C207.467,195.746,204.109,192.387,199.967,192.387z"/>
	</g>
</g>
<g>
	<g>
		<path d="M55.596,360.727c-4.142,0-7.5,3.358-7.5,7.5v8.016c0,4.142,3.358,7.5,7.5,7.5c4.142,0,7.5-3.358,7.5-7.5v-8.016
			C63.096,364.085,59.738,360.727,55.596,360.727z"/>
	</g>
</g>
<g>
	<g>
		<path d="M87.661,360.727c-4.142,0-7.5,3.358-7.5,7.5v8.016c0,4.142,3.358,7.5,7.5,7.5c4.142,0,7.5-3.358,7.5-7.5v-8.016
			C95.161,364.085,91.803,360.727,87.661,360.727z"/>
	</g>
</g>
<g>
	<g>
		<path d="M119.725,360.727c-4.142,0-7.5,3.358-7.5,7.5v8.016c0,4.142,3.358,7.5,7.5,7.5c4.142,0,7.5-3.358,7.5-7.5v-8.016
			C127.225,364.085,123.867,360.727,119.725,360.727z"/>
	</g>
</g>
<g>
	<g>
		<path d="M55.596,320.646c-4.142,0-7.5,3.358-7.5,7.5v8.016c0,4.142,3.358,7.5,7.5,7.5c4.142,0,7.5-3.358,7.5-7.5v-8.016
			C63.096,324.004,59.738,320.646,55.596,320.646z"/>
	</g>
</g>
<g>
	<g>
		<path d="M87.661,320.646c-4.142,0-7.5,3.358-7.5,7.5v8.016c0,4.142,3.358,7.5,7.5,7.5c4.142,0,7.5-3.358,7.5-7.5v-8.016
			C95.161,324.004,91.803,320.646,87.661,320.646z"/>
	</g>
</g>
<g>
	<g>
		<path d="M119.725,320.646c-4.142,0-7.5,3.358-7.5,7.5v8.016c0,4.142,3.358,7.5,7.5,7.5c4.142,0,7.5-3.358,7.5-7.5v-8.016
			C127.225,324.004,123.867,320.646,119.725,320.646z"/>
	</g>
</g>
<g>
	<g>
		<path d="M215.919,352.71c-4.142,0-7.5,3.358-7.5,7.5v8.016c0,4.142,3.358,7.5,7.5,7.5c4.142,0,7.5-3.358,7.5-7.5v-8.016
			C223.419,356.067,220.062,352.71,215.919,352.71z"/>
	</g>
</g>
<g>
	<g>
		<path d="M247.984,352.71c-4.142,0-7.5,3.358-7.5,7.5v8.016c0,4.142,3.358,7.5,7.5,7.5c4.142,0,7.5-3.358,7.5-7.5v-8.016
			C255.484,356.067,252.126,352.71,247.984,352.71z"/>
	</g>
</g>
<g>
</g>
<g>
</g>
<g>
</g>
<g>
</g>
<g>
</g>
<g>
</g>
<g>
</g>
<g>
</g>
<g>
</g>
<g>
</g>
<g>
</g>
<g>
</g>
<g>
</g>
<g>
</g>
<g>
</g>
</svg>
